<?xml version="1.0" encoding="UTF-8" standalone="no"?>
<!DOCTYPE svg PUBLIC "-//W3C//DTD SVG 1.1//EN" "http://www.w3.org/Graphics/SVG/1.1/DTD/svg11.dtd">
<svg width="100%" height="100%" viewBox="0 0 74 41" version="1.1" xmlns="http://www.w3.org/2000/svg" xmlns:xlink="http://www.w3.org/1999/xlink" xml:space="preserve" xmlns:serif="http://www.serif.com/" style="fill-rule:evenodd;clip-rule:evenodd;stroke-linejoin:round;stroke-miterlimit:2;">
    <g transform="matrix(1,0,0,1,0,-5.16872e-05)">
        <g transform="matrix(1,0,0,1,-1.2,-0.974498)">
            <path id="flame" d="M21.909,9.257C25.041,9.291 28.163,9.61 31.237,10.212C34.145,10.749 37.086,11.759 40.065,11.75C42.341,11.743 44.181,10.161 44.175,8.217C44.168,6.272 42.319,4.702 40.043,4.709C38.719,4.73 37.406,4.948 36.146,5.356C36.474,5.113 36.809,4.88 37.153,4.661C41.683,1.96 46.926,0.693 52.19,1.027C57.806,1.258 63.66,3.005 67.954,6.718C73.036,11.146 75.533,17.868 74.575,24.54C73.442,31.329 68.837,37.053 62.448,39.615C57.801,41.272 52.754,41.457 47.998,40.143C41.785,38.573 36.358,35.095 30.514,32.609C27.106,31.307 23.558,30.408 19.942,29.929L19.999,29.931C21.406,30.026 22.816,29.787 24.113,29.233C25.841,28.405 25.836,26.402 24.935,24.94C23.864,23.204 21.707,22.495 19.842,21.99C16.593,21.142 13.203,20.976 9.887,21.501C7.437,21.74 5.084,22.576 3.032,23.936C2.24,24.507 1.609,25.275 1.2,26.162C4.284,17.623 10.405,18.582 14.165,16.241C14.762,15.84 15.122,15.165 15.122,14.445C15.122,13.258 14.145,12.282 12.958,12.282C12.836,12.282 12.714,12.292 12.594,12.313C11.522,12.571 10.523,13.071 9.674,13.773C9.355,14.017 9.071,14.232 8.817,14.424C8.816,14.424 11.901,9.257 21.909,9.257Z" style="fill:rgb(0,119,255);fill-rule:nonzero;"/>
        </g>
        <g transform="matrix(1,0,0,1,-1.2,-0.974498)">
            <path id="flame_center" d="M65.162,20.351C65.27,20.879 65.325,21.416 65.325,21.955C65.325,25.742 62.637,29.035 58.927,29.794C50.983,31.417 41.927,24.821 34.949,21.599C46.788,22.317 50.228,15.233 55.719,14.116C60.019,13.238 64.28,16.052 65.162,20.351Z" style="fill:white;fill-rule:nonzero;"/>
        </g>
    </g>
</svg>
