<?xml version="1.0" encoding="UTF-8" standalone="no"?>
<!DOCTYPE svg PUBLIC "-//W3C//DTD SVG 1.1//EN" "http://www.w3.org/Graphics/SVG/1.1/DTD/svg11.dtd">
<svg width="100%" height="100%" viewBox="0 0 291 41" version="1.1" xmlns="http://www.w3.org/2000/svg" xmlns:xlink="http://www.w3.org/1999/xlink" xml:space="preserve" xmlns:serif="http://www.serif.com/" style="fill-rule:evenodd;clip-rule:evenodd;stroke-linejoin:round;stroke-miterlimit:2;">
    <g transform="matrix(1,0,0,1,-1.2,-0.974498)">
        <path id="flame" d="M21.909,9.257C25.041,9.291 28.163,9.61 31.237,10.212C34.145,10.749 37.086,11.759 40.065,11.75C42.341,11.743 44.181,10.161 44.175,8.217C44.168,6.272 42.319,4.702 40.043,4.709C38.719,4.73 37.406,4.948 36.146,5.356C36.474,5.113 36.809,4.88 37.153,4.661C41.683,1.96 46.926,0.693 52.19,1.027C57.806,1.258 63.66,3.005 67.954,6.718C73.036,11.146 75.533,17.868 74.575,24.54C73.442,31.329 68.837,37.053 62.448,39.615C57.801,41.272 52.754,41.457 47.998,40.143C41.785,38.573 36.358,35.095 30.514,32.609C27.106,31.307 23.558,30.408 19.942,29.929L19.999,29.931C21.406,30.026 22.816,29.787 24.113,29.233C25.841,28.405 25.836,26.402 24.935,24.94C23.864,23.204 21.707,22.495 19.842,21.99C16.593,21.142 13.203,20.976 9.887,21.501C7.437,21.74 5.084,22.576 3.032,23.936C2.24,24.507 1.609,25.275 1.2,26.162C4.284,17.623 10.405,18.582 14.165,16.241C14.762,15.84 15.122,15.165 15.122,14.445C15.122,13.258 14.145,12.282 12.958,12.282C12.836,12.282 12.714,12.292 12.594,12.313C11.522,12.571 10.523,13.071 9.674,13.773C9.355,14.017 9.071,14.232 8.817,14.424C8.816,14.424 11.901,9.257 21.909,9.257Z" style="fill:rgb(121,121,121);fill-rule:nonzero;"/>
        <path id="flame_center" d="M65.162,20.351C65.27,20.879 65.325,21.416 65.325,21.955C65.325,25.742 62.637,29.035 58.927,29.794C50.983,31.417 41.927,24.821 34.949,21.599C46.788,22.317 50.228,15.233 55.719,14.116C60.019,13.238 64.28,16.052 65.162,20.351Z" style="fill:white;fill-rule:nonzero;"/>
        <g id="MediaFire">
            <path d="M87.626,6.314L101.042,6.314L101.436,23.095L101.523,23.095L110.045,6.314L123.723,6.314L117.081,37.516L108.165,37.516L112.973,16.016L112.885,16.016L102.659,37.516L95.536,37.516L94.4,16.016L94.313,16.016L90.029,37.516L81.115,37.516L87.626,6.314Z" style="fill:rgb(179,179,179);fill-rule:nonzero;"/>
            <path d="M144.82,30.918C144.251,32.448 142.547,38.085 132.758,38.085C124.717,38.085 121.483,33.583 121.483,28.077C121.483,17.676 129.437,14.268 135.075,14.268C140.1,14.268 146.175,17.065 146.175,24.188C146.215,25.513 146.068,26.837 145.738,28.121L129.568,28.121C129.568,30.525 130.398,32.535 133.108,32.535C134.452,32.658 135.761,32.037 136.516,30.918L144.82,30.918ZM138.002,23.62C138.053,23.375 138.082,23.127 138.09,22.877C138.091,22.836 138.092,22.794 138.092,22.753C138.092,21.133 136.759,19.8 135.139,19.8C135.03,19.8 134.92,19.806 134.812,19.818C132.496,19.818 130.966,21.217 130.311,23.62L138.002,23.62Z" style="fill:rgb(179,179,179);fill-rule:nonzero;"/>
            <path d="M161.946,34.939L161.859,34.939C160.555,36.984 158.253,38.185 155.829,38.085C148.531,38.085 147.526,31.617 147.526,28.864C147.526,20.255 152.027,14.268 158.801,14.268C161.422,14.268 163.869,15.054 165.356,17.633L167.716,6.314L176.368,6.314L169.9,37.516L161.422,37.516L161.946,34.939ZM163.109,24.756C163.109,22.221 162.236,20.561 160.007,20.561C156.554,20.561 155.418,24.8 155.418,28.077C155.418,30.131 156.336,31.792 158.608,31.792C161.973,31.792 163.109,27.465 163.109,24.756Z" style="fill:rgb(179,179,179);fill-rule:nonzero;"/>
            <path d="M177.06,14.836L185.713,14.836L180.993,37.516L172.341,37.516L177.06,14.836ZM186.194,12.388L177.541,12.388L178.808,6.314L187.461,6.314L186.194,12.388Z" style="fill:rgb(179,179,179);fill-rule:nonzero;"/>
            <path d="M215.101,6.314L239.18,6.314L237.398,14.836L222.933,14.836L222.103,18.724L234.383,18.724L232.853,26.154L220.573,26.154L218.203,37.516L208.59,37.516L215.101,6.314Z" style="fill:rgb(179,179,179);fill-rule:nonzero;"/>
            <path d="M239.797,14.836L248.449,14.836L243.73,37.516L235.077,37.516L239.797,14.836Z" style="fill:rgb(179,179,179);fill-rule:nonzero;"/>
            <path d="M291.2,24.188C291.2,17.065 285.126,14.268 280.1,14.268C277.199,14.265 274.36,15.118 271.942,16.721C270.317,17.822 268.991,19.309 268.083,21.049C266.994,23.228 266.454,25.641 266.509,28.077C266.509,33.583 269.743,38.085 277.783,38.085C287.572,38.085 289.277,32.447 289.845,30.917L281.542,30.917C280.787,32.036 279.478,32.657 278.134,32.534C275.424,32.534 274.594,30.524 274.594,28.121L290.762,28.121C291.093,26.837 291.24,25.513 291.2,24.188ZM283.028,23.62L275.337,23.62C275.992,21.216 277.522,19.818 279.838,19.818C279.947,19.806 280.056,19.8 280.165,19.8C281.785,19.8 283.118,21.132 283.118,22.752C283.118,22.794 283.117,22.835 283.115,22.877C283.108,23.126 283.079,23.375 283.028,23.62L283.028,23.62Z" style="fill:rgb(179,179,179);fill-rule:nonzero;"/>
            <g>
                <path d="M265.812,22.008L266.729,19.992C266.372,20.639 266.065,21.313 265.812,22.008Z" style="fill:rgb(179,179,179);fill-rule:nonzero;"/>
                <path d="M269.095,14.789C268.003,14.434 266.86,14.258 265.712,14.268C265.692,14.268 265.672,14.272 265.651,14.272C264.801,14.284 263.959,14.422 263.151,14.684C261.28,15.405 259.684,16.697 258.588,18.376L258.501,18.376L258.638,17.72L259.244,14.836L250.897,14.836L246.177,37.516L254.83,37.516L257.058,26.952C258.107,23.05 259.919,21.708 263.268,21.698L263.308,21.696C264.152,21.695 264.994,21.8 265.812,22.008L269.095,14.789Z" style="fill:rgb(179,179,179);fill-rule:nonzero;"/>
            </g>
            <path d="M198.49,14.268C192.94,14.268 188.264,15.666 186.909,21.696L195.038,21.696C195.518,19.992 196.742,19.381 198.49,19.381C199.801,19.381 201.199,19.774 201.199,21.347C201.199,24.144 197.31,23.794 194.863,23.969C188.351,24.45 183.894,26.067 183.894,32.054C183.894,36.38 187.346,38.085 191.235,38.085C193.77,38.085 196.698,37.167 198.227,35.331L198.347,35.171L197.864,37.516L206.143,37.516L209.173,23.354C209.35,22.344 209.46,21.323 209.502,20.298C209.503,14.792 202.598,14.268 198.49,14.268ZM199.637,28.901C199.001,31.421 197.782,32.971 195.3,32.971C193.901,32.971 192.547,32.578 192.547,31.005C192.547,29.345 193.901,28.601 195.344,28.47C196.923,28.427 198.48,28.086 199.932,27.465L199.637,28.901Z" style="fill:rgb(179,179,179);fill-rule:nonzero;"/>
            <path d="M248.93,12.388L240.278,12.388L241.545,6.314L250.197,6.314L248.93,12.388Z" style="fill:rgb(179,179,179);fill-rule:nonzero;"/>
        </g>
    </g>
</svg>
